<svg id="Layer_1" data-name="Layer 1" xmlns="http://www.w3.org/2000/svg" viewBox="0 0 432 144"><defs><style>.cls-1{fill:#020202;}.cls-2{fill:#f91b00;}.cls-3{fill:#ff5c52;}.cls-4{fill:#009b9b;}.cls-5{fill:#00d1bd;}.cls-6{fill:#0086f6;}.cls-7{fill:#31aaff;}.cls-8{fill:#de003c;}.cls-9{fill:#ff3a6f;}</style></defs><path class="cls-1" d="M171.89,22c20.13,0,30.87,11.4,30.87,25.9,0,12.21-7.65,19.73-14.76,22.14v.54c9.93,3.08,16.5,11.14,16.5,24.42,0,16-11.27,27.78-31.8,27.78-18.61,0-32.87-9-34.61-28a2,2,0,0,1,2-2.23h14.25a2,2,0,0,1,2,1.72c1.05,7.54,6.58,12.77,16,12.77s14.22-5.9,14.22-13.69c0-11-7-15-20.93-15h-1.87a2,2,0,0,1-2-2V64.92a2,2,0,0,1,2-2h1.87c11,0,19-3.09,19-12.75,0-7.65-4.7-12.21-13.28-12.21-8.35,0-12.31,4.93-13.45,10.49a2,2,0,0,1-2,1.59H141.48a2,2,0,0,1-2-2.22C141.3,31.08,153.89,22,171.89,22Z"/><path class="cls-1" d="M222,41.55h-9a2,2,0,0,1-2-2V26.27a2,2,0,0,1,2-2h28.29a2,2,0,0,1,2,2V120a2,2,0,0,1-2,2H226a2,2,0,0,1-2-2V43.58A2,2,0,0,0,222,41.55Z"/><path class="cls-1" d="M299.91,103H255.78a2,2,0,0,1-2-2V88.89a2,2,0,0,1,.37-1.16L297,26.31a2,2,0,0,1,1.66-.86h18.8a2,2,0,0,1,2,2V85.83a.81.81,0,0,0,.81.81h9a2,2,0,0,1,2,2V101a2,2,0,0,1-2,2h-9a.82.82,0,0,0-.81.82V120a2,2,0,0,1-2,2H302.75a2,2,0,0,1-2-2V103.83A.82.82,0,0,0,299.91,103Zm2-16.77V46.91a.41.41,0,0,0-.74-.23L274.84,86a.41.41,0,0,0,.34.63h26.35A.4.4,0,0,0,301.93,86.24Z"/><path class="cls-1" d="M376.55,123.28c-21.61,0-37.31-15-37.31-38.38s15.3-38.38,37.31-38.38c21.47,0,36.63,14.62,36.63,36.77a47.49,47.49,0,0,1-.28,5.45,2,2,0,0,1-2,1.79H359.2a.81.81,0,0,0-.81.9c1.26,10.44,8.62,16.28,17.75,16.28,7.49,0,11.85-3.48,14.36-8a2,2,0,0,1,1.76-1h16.21a2,2,0,0,1,1.89,2.77C405.56,113.84,393.68,123.28,376.55,123.28ZM359.39,77.92h33.48a.81.81,0,0,0,.81-.89C393,67.75,385.38,62,376,62c-8.71,0-15.66,5.42-17.42,15A.8.8,0,0,0,359.39,77.92Z"/><path class="cls-2" d="M57.79,20.72h22a.89.89,0,0,1,.89.89V38.25a.89.89,0,0,1-.89.89h-22a0,0,0,0,1,0,0V20.72A0,0,0,0,1,57.79,20.72Z"/><path class="cls-3" d="M57.79,20.72V39.14H40.26a.89.89,0,0,1-.89-.89V34.49A13.76,13.76,0,0,1,53.13,20.72Z"/><path class="cls-2" d="M82.77,41.27H100.3a.89.89,0,0,1,.89.89V58.79a.89.89,0,0,1-.89.89H82.77a0,0,0,0,1,0,0V41.27a0,0,0,0,1,0,0Z" transform="translate(142.46 -41.5) rotate(90)"/><path class="cls-3" d="M101.19,33.68v7.58H82.77V21.62a.89.89,0,0,1,.89-.9h4.57A13,13,0,0,1,101.19,33.68Z"/><path class="cls-4" d="M16.63,63.88H38.53a.89.89,0,0,1,.89.89V81.41a.89.89,0,0,1-.89.89H16.63a0,0,0,0,1,0,0V63.88a0,0,0,0,1,0,0Z" transform="translate(-45.06 101.12) rotate(-90)"/><path class="cls-5" d="M37.24,84.48v17.44a.9.9,0,0,1-.9.9H32.58A13.77,13.77,0,0,1,18.82,89.05V84.48Z"/><path class="cls-4" d="M39.37,41.27H56.89a.89.89,0,0,1,.89.89V58.79a.89.89,0,0,1-.89.89H39.37a0,0,0,0,1,0,0V41.27A0,0,0,0,1,39.37,41.27Z"/><path class="cls-5" d="M39.37,41.26V59.69H19.71a.89.89,0,0,1-.89-.89V54.23a13,13,0,0,1,13-13Z"/><path class="cls-6" d="M59.9,104.86h22a.89.89,0,0,1,.89.89v16.63a.89.89,0,0,1-.89.89h-22a0,0,0,0,1,0,0V104.86A0,0,0,0,1,59.9,104.86Z" transform="translate(142.67 228.13) rotate(-180)"/><path class="cls-7" d="M101.19,105.75v3.77a13.76,13.76,0,0,1-13.76,13.76H82.77V104.86H100.3A.89.89,0,0,1,101.19,105.75Z"/><path class="cls-6" d="M39.37,84.39H56.89a.89.89,0,0,1,.89.89v16.63a.89.89,0,0,1-.89.89H39.37a0,0,0,0,1,0,0V84.39A0,0,0,0,1,39.37,84.39Z" transform="translate(-45.03 142.18) rotate(-90)"/><path class="cls-7" d="M57.79,102.82v19.56a.9.9,0,0,1-.9.9H52.31a12.94,12.94,0,0,1-12.94-13v-7.51Z"/><path class="cls-8" d="M101.31,61.91h21.55a.89.89,0,0,1,.89.89V79.44a.89.89,0,0,1-.89.89H101.31a0,0,0,0,1,0,0V61.91A0,0,0,0,1,101.31,61.91Z" transform="translate(183.65 -41.41) rotate(90)"/><path class="cls-9" d="M103.32,59.9V42.12a.9.9,0,0,1,.9-.9H108A13.77,13.77,0,0,1,121.74,55V59.9Z"/><path class="cls-8" d="M82.77,84.35H100.3a.89.89,0,0,1,.89.89v16.63a.89.89,0,0,1-.89.89H82.77a0,0,0,0,1,0,0V84.35a0,0,0,0,1,0,0Z" transform="translate(183.96 187.12) rotate(-180)"/><path class="cls-9" d="M101.19,102.78V84.35h19.66a.89.89,0,0,1,.89.89v4.57a13,13,0,0,1-13,13Z"/></svg>